<svg width="24" height="24" viewBox="0 0 24 24" fill="none" xmlns="http://www.w3.org/2000/svg">
<path fill-rule="evenodd" clip-rule="evenodd" d="M11.9346 3C15.0982 3 17.6628 5.5646 17.6628 8.7282C17.6628 11.1011 18.0908 12.8842 18.7904 14.1668C19.0246 14.5963 19.2704 14.9321 19.5099 15.185L19.571 15.248L19.6701 15.3431L19.735 15.3986L19.7534 15.4121C20.4001 15.8433 20.133 16.8283 19.3942 16.9064L19.2995 16.9113H4.56982C3.79256 16.9113 3.46846 15.9436 4.03979 15.4688L4.1343 15.3986L4.1992 15.3431L4.29826 15.248C4.31739 15.2288 4.33778 15.2078 4.35935 15.185C4.5989 14.9321 4.84465 14.5963 5.0789 14.1668C5.74352 12.9484 6.16297 11.2782 6.20326 9.07972L6.20645 8.7282C6.20645 5.5646 8.77105 3 11.9346 3ZM11.9346 4.63663C9.7344 4.63663 7.93979 6.37334 7.84686 8.55071L7.84308 8.7282C7.84308 11.3675 7.35042 13.4202 6.51569 14.9505L6.40258 15.1515L6.32756 15.2747H17.5409L17.4667 15.1515L17.3536 14.9505C16.5586 13.4931 16.0739 11.5618 16.0295 9.10125L16.0262 8.7282L16.0224 8.55071C15.9295 6.37334 14.1349 4.63663 11.9346 4.63663ZM13.7609 18.6584C13.3979 18.4479 12.9402 18.5476 12.6951 18.8759L12.5893 19.0361C12.4359 19.2406 12.194 19.3634 11.9346 19.3634C11.6753 19.3634 11.4334 19.2406 11.28 19.0361L11.1742 18.8759C10.9291 18.5476 10.4714 18.4479 10.1084 18.6584C9.71743 18.8852 9.58435 19.386 9.81112 19.7769C10.2503 20.534 11.0594 21 11.9346 21C12.8099 21 13.619 20.534 14.0582 19.7769C14.2849 19.386 14.1519 18.8852 13.7609 18.6584Z" fill="#141414"/>
<path d="M20.25 6C20.25 7.65685 18.9069 9 17.25 9C15.5931 9 14.25 7.65685 14.25 6C14.25 4.34315 15.5931 3 17.25 3C18.9069 3 20.25 4.34315 20.25 6Z" fill="#0F7FFA"/>
</svg>
